<?xml version="1.0" encoding="UTF-8" standalone="no"?>
<svg
   xmlns:dc="http://purl.org/dc/elements/1.1/"
   xmlns:cc="http://creativecommons.org/ns#"
   xmlns:rdf="http://www.w3.org/1999/02/22-rdf-syntax-ns#"
   xmlns:svg="http://www.w3.org/2000/svg"
   xmlns="http://www.w3.org/2000/svg"
   xmlns:sodipodi="http://sodipodi.sourceforge.net/DTD/sodipodi-0.dtd"
   xmlns:inkscape="http://www.inkscape.org/namespaces/inkscape"
   inkscape:version="1.0 (4035a4fb49, 2020-05-01)"
   sodipodi:docname="Group 9.svg"
   id="svg58"
   version="1.1"
   fill="none"
   viewBox="0 0 256 75"
   height="75"
   width="256">
  <metadata
     id="metadata62">
    <rdf:RDF>
      <cc:Work
         rdf:about="">
        <dc:format>image/svg+xml</dc:format>
        <dc:type
           rdf:resource="http://purl.org/dc/dcmitype/StillImage" />
      </cc:Work>
    </rdf:RDF>
  </metadata>
  <sodipodi:namedview
     inkscape:current-layer="Group 9"
     inkscape:window-maximized="1"
     inkscape:window-y="32"
     inkscape:window-x="1912"
     inkscape:cy="89.011749"
     inkscape:cx="121.52796"
     inkscape:zoom="2.4023438"
     showgrid="false"
     id="namedview60"
     inkscape:window-height="1017"
     inkscape:window-width="1920"
     inkscape:pageshadow="2"
     inkscape:pageopacity="0"
     guidetolerance="10"
     gridtolerance="10"
     objecttolerance="10"
     borderopacity="1"
     bordercolor="#666666"
     pagecolor="#ffffff" />
  <g
     id="Group 9">
    <g
       id="g901">
      <g
         id="Rectangle 10"
         filter="url(#filter0_d)">
        <rect
           x="3"
           y="13"
           width="240"
           height="59"
           rx="10"
           fill="#F8F8F8"
           id="rect2" />
        <rect
           x="2.5"
           y="12.5"
           width="241"
           height="60"
           rx="10.5"
           stroke="#F4F4F4"
           id="rect4" />
      </g>
      <g
         id="Group 8">
        <path
           id="Vector"
           d="M195.125 46.825C195.424 46.825 195.71 46.9435 195.921 47.1545C196.132 47.3654 196.25 47.6516 196.25 47.9499V53.5749C196.25 54.1716 196.487 54.7439 196.909 55.1659C197.331 55.5878 197.903 55.8249 198.5 55.8249H225.5C226.097 55.8249 226.669 55.5878 227.091 55.1659C227.513 54.7439 227.75 54.1716 227.75 53.5749V47.9499C227.75 47.6516 227.868 47.3654 228.079 47.1545C228.29 46.9435 228.577 46.825 228.875 46.825C229.173 46.825 229.459 46.9435 229.67 47.1545C229.881 47.3654 230 47.6516 230 47.9499V53.5749C230 54.7684 229.526 55.9129 228.682 56.7569C227.838 57.6008 226.693 58.0749 225.5 58.0749H198.5C197.307 58.0749 196.162 57.6008 195.318 56.7569C194.474 55.9129 194 54.7684 194 53.5749V47.9499C194 47.6516 194.119 47.3654 194.33 47.1545C194.541 46.9435 194.827 46.825 195.125 46.825Z"
           fill="#191919" />
        <path
           id="Vector_2"
           d="M211.204 51.2214C211.308 51.3262 211.432 51.4093 211.569 51.466C211.706 51.5228 211.852 51.5519 212 51.5519C212.148 51.5519 212.295 51.5228 212.431 51.466C212.568 51.4093 212.692 51.3262 212.797 51.2214L219.547 44.4715C219.758 44.2603 219.876 43.9737 219.876 43.675C219.876 43.3763 219.758 43.0897 219.547 42.8785C219.335 42.6673 219.049 42.5486 218.75 42.5486C218.451 42.5486 218.165 42.6673 217.954 42.8785L213.125 47.7092V27.9251C213.125 27.6268 213.007 27.3406 212.796 27.1296C212.585 26.9187 212.299 26.8001 212 26.8001C211.702 26.8001 211.416 26.9187 211.205 27.1296C210.994 27.3406 210.875 27.6268 210.875 27.9251V47.7092L206.047 42.8785C205.835 42.6673 205.549 42.5486 205.25 42.5486C204.951 42.5486 204.665 42.6673 204.454 42.8785C204.242 43.0897 204.124 43.3763 204.124 43.675C204.124 43.9737 204.242 44.2603 204.454 44.4715L211.204 51.2214Z"
           fill="#191919" />
      </g>
      <g
         id="Group 7">
        <path
           id="Vector_3"
           d="M41.75 54.75V34.5625L32.1875 25H20.5C19.3728 25 18.2918 25.4478 17.4948 26.2448C16.6978 27.0418 16.25 28.1228 16.25 29.25V54.75C16.25 55.8772 16.6978 56.9582 17.4948 57.7552C18.2918 58.5522 19.3728 59 20.5 59H37.5C38.6272 59 39.7082 58.5522 40.5052 57.7552C41.3022 56.9582 41.75 55.8772 41.75 54.75ZM32.1875 31.375C32.1875 32.2204 32.5233 33.0311 33.1211 33.6289C33.7189 34.2267 34.5296 34.5625 35.375 34.5625H39.625V54.75C39.625 55.3136 39.4011 55.8541 39.0026 56.2526C38.6041 56.6511 38.0636 56.875 37.5 56.875H20.5C19.9364 56.875 19.3959 56.6511 18.9974 56.2526C18.5989 55.8541 18.375 55.3136 18.375 54.75V29.25C18.375 28.6864 18.5989 28.1459 18.9974 27.7474C19.3959 27.3489 19.9364 27.125 20.5 27.125H32.1875V31.375Z"
           fill="#191919" />
        <path
           id="Vector_4"
           d="M21.7814 54.9349C21.3673 54.7692 21.0336 54.4492 20.8507 54.0424C20.4363 53.2179 20.5744 52.3934 21.0207 51.7006C21.4414 51.0482 22.1384 50.4936 22.9268 50.0282C23.9254 49.4619 24.981 49.0024 26.0761 48.6576C26.9265 47.1289 27.6802 45.5483 28.3328 43.9252C27.9426 43.0386 27.6367 42.1173 27.4191 41.1734C27.2363 40.3234 27.1662 39.4819 27.3213 38.7594C27.4807 38.0071 27.9036 37.3314 28.7026 37.0105C29.1106 36.8469 29.5526 36.7555 29.9818 36.8469C30.1977 36.8928 30.4007 36.9863 30.576 37.1204C30.7514 37.2546 30.8946 37.4261 30.9954 37.6225C31.1824 37.971 31.2504 38.379 31.2653 38.7657C31.2802 39.1652 31.2398 39.6072 31.1654 40.0705C30.9869 41.1542 30.5917 42.4802 30.0604 43.8827C30.6467 45.1365 31.3436 46.3355 32.1429 47.4655C33.0888 47.3908 34.0401 47.4264 34.9777 47.5717C35.7512 47.712 36.5374 47.9861 37.0177 48.5599C37.2727 48.8659 37.4278 49.2399 37.4427 49.6606C37.4576 50.0686 37.3428 50.4724 37.1494 50.857C36.9819 51.2134 36.7222 51.5186 36.3972 51.741C36.0759 51.9506 35.6966 52.0532 35.3134 52.0342C34.6101 52.0045 33.9237 51.6177 33.3308 51.1481C32.6099 50.552 31.9603 49.8746 31.3949 49.1294C29.9579 49.2924 28.5379 49.5811 27.1513 49.9921C26.5163 51.1183 25.7915 52.1913 24.9838 53.2009C24.3633 53.9446 23.6897 54.5949 23.0139 54.8732C22.6257 55.0489 22.1853 55.0709 21.7814 54.9349ZM24.7118 50.8952C24.3591 51.0567 24.0318 51.2267 23.7364 51.401C23.0394 51.8132 22.5868 52.2149 22.3616 52.5634C22.1618 52.8715 22.1576 53.0946 22.2766 53.3305C22.2978 53.3772 22.3191 53.407 22.3318 53.424C22.3572 53.4172 22.382 53.4087 22.4062 53.3985C22.6973 53.2795 23.1606 52.8991 23.7556 52.183C24.094 51.7687 24.4131 51.339 24.7118 50.8952ZM28.1968 48.069C28.9064 47.9034 29.6224 47.7666 30.3431 47.6589C29.9561 47.0667 29.5946 46.4584 29.2593 45.8356C28.926 46.5891 28.5717 47.3332 28.1968 48.0669V48.069ZM33.3946 49.0252C33.7133 49.3716 34.0236 49.6627 34.3189 49.8965C34.8289 50.3002 35.1838 50.4341 35.3772 50.4405C35.429 50.4473 35.4815 50.436 35.5259 50.4086C35.6143 50.3388 35.6832 50.2473 35.7257 50.143C35.8012 50.0135 35.8443 49.8677 35.8511 49.718C35.8498 49.6681 35.8302 49.6204 35.7958 49.5841C35.6853 49.4524 35.3708 49.2611 34.6951 49.14C34.2652 49.0681 33.8304 49.0304 33.3946 49.0274V49.0252ZM29.1658 41.575C29.3447 40.9981 29.4866 40.4104 29.5908 39.8155C29.6567 39.416 29.6822 39.0866 29.6716 38.8274C29.6722 38.6843 29.6492 38.5422 29.6036 38.4066C29.4973 38.4198 29.3935 38.4484 29.2954 38.4916C29.1106 38.566 28.9597 38.7169 28.8789 39.093C28.7939 39.501 28.8152 40.0896 28.9767 40.8397C29.0277 41.0756 29.0914 41.3221 29.1679 41.575H29.1658Z"
           fill="#191919" />
      </g>
      <text
         id="fileName"
         fill="#191919"
         xml:space="preserve"
         style="white-space: pre"
         font-family="Roboto"
         font-size="22"
         letter-spacing="0em"><tspan
           x="72.0068"
           y="49.5195"
           id="tspan13">Weisung 1</tspan></text>
      <g
         id="notification"
         filter="url(#filter1_d)">
        <rect
           x="232"
           y="2"
           width="22"
           height="22"
           rx="11"
           fill="#EF0000"
           id="rect16" />
        <rect
           x="232.5"
           y="2.5"
           width="21"
           height="21"
           rx="10.5"
           stroke="#DF0000"
           id="rect18" />
      </g>
    </g>
  </g>
  <defs
     id="defs56">
    <filter
       color-interpolation-filters="sRGB"
       filterUnits="userSpaceOnUse"
       height="65"
       width="246"
       y="10"
       x="0"
       id="filter0_d">
      <feFlood
         id="feFlood22"
         result="BackgroundImageFix"
         flood-opacity="0" />
      <feColorMatrix
         id="feColorMatrix24"
         result="hardAlpha"
         values="0 0 0 0 0 0 0 0 0 0 0 0 0 0 0 0 0 0 127 0"
         type="matrix"
         in="SourceAlpha" />
      <feOffset
         id="feOffset26" />
      <feGaussianBlur
         id="feGaussianBlur28"
         stdDeviation="1" />
      <feComposite
         id="feComposite30"
         operator="out"
         in2="hardAlpha" />
      <feColorMatrix
         id="feColorMatrix32"
         values="0 0 0 0 0 0 0 0 0 0 0 0 0 0 0 0 0 0 0.25 0"
         type="matrix" />
      <feBlend
         id="feBlend34"
         result="effect1_dropShadow"
         in2="BackgroundImageFix"
         mode="normal" />
      <feBlend
         id="feBlend36"
         result="shape"
         in2="effect1_dropShadow"
         in="SourceGraphic"
         mode="normal" />
    </filter>
    <filter
       color-interpolation-filters="sRGB"
       filterUnits="userSpaceOnUse"
       height="26"
       width="26"
       y="0"
       x="230"
       id="filter1_d">
      <feFlood
         id="feFlood39"
         result="BackgroundImageFix"
         flood-opacity="0" />
      <feColorMatrix
         id="feColorMatrix41"
         result="hardAlpha"
         values="0 0 0 0 0 0 0 0 0 0 0 0 0 0 0 0 0 0 127 0"
         type="matrix"
         in="SourceAlpha" />
      <feOffset
         id="feOffset43" />
      <feGaussianBlur
         id="feGaussianBlur45"
         stdDeviation="1" />
      <feComposite
         id="feComposite47"
         operator="out"
         in2="hardAlpha" />
      <feColorMatrix
         id="feColorMatrix49"
         values="0 0 0 0 0 0 0 0 0 0 0 0 0 0 0 0 0 0 0.25 0"
         type="matrix" />
      <feBlend
         id="feBlend51"
         result="effect1_dropShadow"
         in2="BackgroundImageFix"
         mode="normal" />
      <feBlend
         id="feBlend53"
         result="shape"
         in2="effect1_dropShadow"
         in="SourceGraphic"
         mode="normal" />
    </filter>
  </defs>
</svg>
